<?xml version="1.0" encoding="UTF-8" standalone="no"?>
<!-- Created with Inkscape (http://www.inkscape.org/) -->

<svg
   width="1920"
   height="1080"
   viewBox="0 0 508 285.75001"
   version="1.1"
   id="svg5"
   inkscape:version="1.2.2 (b0a8486541, 2022-12-01)"
   sodipodi:docname="wallpaper_plain.svg"
   xmlns:inkscape="http://www.inkscape.org/namespaces/inkscape"
   xmlns:sodipodi="http://sodipodi.sourceforge.net/DTD/sodipodi-0.dtd"
   xmlns="http://www.w3.org/2000/svg"
   xmlns:svg="http://www.w3.org/2000/svg"
   xmlns:rdf="http://www.w3.org/1999/02/22-rdf-syntax-ns#"
   xmlns:cc="http://creativecommons.org/ns#">
  <sodipodi:namedview
     id="namedview7"
     pagecolor="#ffffff"
     bordercolor="#000000"
     borderopacity="0.25"
     inkscape:showpageshadow="2"
     inkscape:pageopacity="0.0"
     inkscape:pagecheckerboard="false"
     inkscape:deskcolor="#d1d1d1"
     inkscape:document-units="px"
     showgrid="false"
     inkscape:zoom="0.63236988"
     inkscape:cx="946.43976"
     inkscape:cy="605.65819"
     inkscape:window-width="1920"
     inkscape:window-height="998"
     inkscape:window-x="0"
     inkscape:window-y="45"
     inkscape:window-maximized="1"
     inkscape:current-layer="layer1" />
  <defs
     id="defs2" />
  <g
     inkscape:label="Layer 1"
     inkscape:groupmode="layer"
     id="layer1">
    <rect
       style="fill:#282828;stroke-width:0.0692726;fill-opacity:1"
       id="rect329"
       width="508"
       height="285.75"
       x="5.5511151e-17"
       y="0" />
    <g
       aria-label="There's no place like"
       transform="scale(0.9999887,1.0000113)"
       id="text1170"
       style="font-size:29.9861px;font-family:'Fira Code';-inkscape-font-specification:'Fira Code, Normal';text-align:center;text-anchor:middle;fill:#cc9221;stroke-width:0.264581">
      <path
         d="M 71.055315,84.883054 V 103.76661 H 68.39501 V 84.883054 H 61.78269 V 82.591809 H 77.7599 l -0.276795,2.291245 z"
         style="font-size:29.9861px"
         id="path297" />
      <path
         d="m 84.679783,80.80802 v 8.980453 q 0.953404,-1.260954 2.337378,-1.906809 1.399351,-0.645854 2.829458,-0.645854 2.368133,0 3.459934,1.260954 1.091802,1.260954 1.091802,3.506067 V 103.76661 H 91.814937 V 92.064341 q 0,-1.460861 -0.676609,-2.122093 -0.67661,-0.67661 -2.122094,-0.67661 -0.922649,0 -1.753033,0.415192 -0.830385,0.415193 -1.491617,1.030292 -0.661232,0.6151 -1.091801,1.260954 V 103.76661 H 82.096365 V 81.084815 Z"
         style="font-size:29.9861px"
         id="path299" />
      <path
         d="m 102.57919,96.585322 q 0.10764,2.814081 1.47624,4.105788 1.38398,1.27633 3.26003,1.27633 1.24558,0 2.24511,-0.36906 0.99954,-0.36906 2.07596,-1.0918 l 1.21482,1.7069 q -1.12255,0.8919 -2.58341,1.39935 -1.46087,0.50746 -2.98324,0.50746 -2.36813,0 -4.0289,-1.06105 -1.64539,-1.06104 -2.52191,-2.95247 -0.861135,-1.906811 -0.861135,-4.413342 0,-2.460398 0.861135,-4.367206 0.87652,-1.906809 2.4604,-2.998611 1.59926,-1.091801 3.75211,-1.091801 3.06012,0 4.81315,2.122093 1.76841,2.122093 1.76841,5.812691 0,0.415192 -0.0307,0.784251 -0.0154,0.36906 -0.0308,0.630477 z m 4.39796,-7.227419 q -1.79916,0 -3.01398,1.276332 -1.21483,1.276331 -1.3686,3.952014 h 8.44224 q -0.0461,-2.598795 -1.13793,-3.905882 -1.09181,-1.322464 -2.92173,-1.322464 z"
         style="font-size:29.9861px"
         id="path301" />
      <path
         d="m 119.15614,103.76661 v -1.9837 h 2.52191 v -12.2251 h -2.52191 v -1.983695 h 4.49022 l 0.47671,3.828994 q 0.93802,-1.999073 2.27586,-3.090875 1.33785,-1.091802 3.53683,-1.091802 0.67661,0 1.19944,0.107643 0.53821,0.09226 1.0918,0.24604 l -0.36906,5.474385 h -2.12209 v -3.444557 q -0.0615,0 -0.1384,0 -3.72135,0 -5.33599,5.320611 v 6.858356 h 3.29079 v 1.9837 z"
         style="font-size:29.9861px"
         id="path303" />
      <path
         d="m 139.48519,96.585322 q 0.10764,2.814081 1.47624,4.105788 1.38397,1.27633 3.26003,1.27633 1.24557,0 2.24511,-0.36906 0.99954,-0.36906 2.07596,-1.0918 l 1.21482,1.7069 q -1.12255,0.8919 -2.58342,1.39935 -1.46086,0.50746 -2.98323,0.50746 -2.36813,0 -4.0289,-1.06105 -1.64539,-1.06104 -2.52191,-2.95247 -0.86114,-1.906811 -0.86114,-4.413342 0,-2.460398 0.86114,-4.367206 0.87652,-1.906809 2.4604,-2.998611 1.59926,-1.091801 3.75211,-1.091801 3.06012,0 4.81315,2.122093 1.76841,2.122093 1.76841,5.812691 0,0.415192 -0.0308,0.784251 -0.0154,0.36906 -0.0308,0.630477 z m 4.39796,-7.227419 q -1.79916,0 -3.01399,1.276332 -1.21482,1.276331 -1.36859,3.952014 h 8.44224 q -0.0461,-2.598795 -1.13794,-3.905882 -1.0918,-1.322464 -2.92172,-1.322464 z"
         style="font-size:29.9861px"
         id="path305" />
      <path
         d="m 160.90605,89.050353 -0.4767,-7.996293 h 3.22927 l -0.4767,7.996293 z"
         style="font-size:29.9861px"
         id="path307" />
      <path
         d="m 179.8665,101.98282 q 1.87605,0 2.95248,-0.69199 1.07642,-0.69198 1.07642,-1.87605 0,-0.722742 -0.27679,-1.260954 -0.26142,-0.538212 -1.0918,-0.968782 -0.83039,-0.445947 -2.55267,-0.876516 -1.67614,-0.415193 -2.92172,-0.953405 -1.2302,-0.553589 -1.92219,-1.430106 -0.6766,-0.876517 -0.6766,-2.275868 0,-2.045206 1.7069,-3.229273 1.7069,-1.184066 4.44409,-1.184066 1.95294,0 3.39843,0.522834 1.46086,0.522835 2.47577,1.260954 l -1.13793,1.753034 q -0.90728,-0.630477 -2.02983,-1.030292 -1.10718,-0.415192 -2.67568,-0.415192 -1.90681,0 -2.70644,0.599722 -0.79963,0.584345 -0.79963,1.522371 0,0.722742 0.38444,1.199445 0.39981,0.461324 1.33784,0.830384 0.93802,0.36906 2.58341,0.815007 1.58389,0.430569 2.76795,1.014914 1.18407,0.584344 1.82992,1.537749 0.66124,0.938026 0.66124,2.44502 0,1.72228 -0.98416,2.7987 -0.98416,1.06105 -2.55267,1.55313 -1.55312,0.4767 -3.29078,0.4767 -2.19898,0 -3.75211,-0.63048 -1.53774,-0.64585 -2.58341,-1.55312 l 1.47623,-1.7069 q 0.95341,0.78425 2.18361,1.27633 1.24557,0.4767 2.67568,0.4767 z"
         style="font-size:29.9861px"
         id="path309" />
      <path
         d="M 211.26736,103.76661 V 87.574115 h 2.19898 l 0.19991,2.245113 q 0.98416,-1.245577 2.46039,-1.906809 1.47624,-0.676609 2.89097,-0.676609 2.38351,0 3.45994,1.260954 1.0918,1.260954 1.0918,3.506067 v 11.763779 h -2.58342 v -9.85697 q 0,-1.660769 -0.18453,-2.675683 -0.18453,-1.014915 -0.78425,-1.491617 -0.58435,-0.476702 -1.79917,-0.476702 -0.9534,0 -1.79916,0.415192 -0.83039,0.415193 -1.49162,1.04567 -0.64585,0.615099 -1.07642,1.245576 v 11.794534 z"
         style="font-size:29.9861px"
         id="path311" />
      <path
         d="m 235.88673,87.23581 q 3.42918,0 5.18222,2.291246 1.75303,2.291245 1.75303,6.135617 0,2.475776 -0.79963,4.382587 -0.79963,1.90681 -2.35275,2.99861 -1.55313,1.07642 -3.81362,1.07642 -3.42918,0 -5.19759,-2.30662 -1.76841,-2.306625 -1.76841,-6.120242 0,-2.491153 0.79963,-4.397961 0.79963,-1.922186 2.35275,-2.983233 1.56851,-1.076424 3.84437,-1.076424 z m 0,2.106716 q -2.09133,0 -3.16776,1.553126 -1.06104,1.553126 -1.06104,4.797776 0,3.213895 1.04566,4.767022 1.06105,1.53775 3.15239,1.53775 2.09134,0 3.13701,-1.55313 1.06104,-1.553124 1.06104,-4.782397 0,-3.229272 -1.04567,-4.767021 -1.04566,-1.553126 -3.12163,-1.553126 z"
         style="font-size:29.9861px"
         id="path313" />
      <path
         d="m 273.86915,87.23581 q 2.15285,0 3.42918,1.045669 1.29171,1.045669 1.86067,2.952478 0.56897,1.891431 0.56897,4.428716 0,2.445021 -0.69199,4.367207 -0.6766,1.90681 -2.06058,2.99861 -1.38397,1.0918 -3.49069,1.0918 -2.6603,0 -4.27494,-1.87605 v 7.7195 l -2.58342,0.32292 V 87.574115 h 2.19898 l 0.21529,2.26049 q 0.89189,-1.245576 2.12209,-1.922186 1.2302,-0.676609 2.70644,-0.676609 z m -0.6151,2.075961 q -1.33784,0 -2.36813,0.815007 -1.0303,0.799629 -1.67615,1.783788 v 8.027049 q 0.63048,0.938025 1.58388,1.491615 0.96878,0.53821 2.12209,0.53821 2.01446,0 3.02937,-1.53775 1.01491,-1.537744 1.01491,-4.782394 0,-6.335525 -3.70597,-6.335525 z"
         style="font-size:29.9861px"
         id="path315" />
      <path
         d="m 291.38413,81.05406 v 18.714402 q 0,1.199448 0.73811,1.706898 0.7535,0.49208 1.93757,0.49208 0.72274,0 1.38397,-0.15377 0.67661,-0.15378 1.33784,-0.41519 l 0.69199,1.89143 q -0.66123,0.32292 -1.64539,0.56896 -0.96878,0.26142 -2.19898,0.26142 -2.15285,0 -3.49069,-1.18407 -1.33784,-1.19944 -1.33784,-3.306155 V 83.099266 h -4.96693 V 81.05406 Z"
         style="font-size:29.9861px"
         id="path317" />
      <path
         d="m 315.12698,100.22979 q 0,0.98416 0.32293,1.4301 0.32293,0.44595 0.99954,0.64586 l -0.63048,1.81454 q -1.04567,-0.1384 -1.82992,-0.66123 -0.78425,-0.53821 -1.13793,-1.61464 -0.87652,1.12256 -2.19899,1.7069 -1.30708,0.56897 -2.87559,0.56897 -2.42964,0 -3.82899,-1.3686 -1.39935,-1.36859 -1.39935,-3.629082 0,-2.506531 1.95294,-3.844372 1.95294,-1.337841 5.64354,-1.337841 h 2.38351 v -1.353219 q 0,-1.753034 -1.03029,-2.475776 -1.01492,-0.738119 -2.82946,-0.738119 -0.79963,0 -1.87605,0.199907 -1.07643,0.18453 -2.33738,0.630477 l -0.67661,-1.952941 q 1.47624,-0.55359 2.78332,-0.784252 1.32247,-0.230662 2.50653,-0.230662 3.01399,0 4.53636,1.414729 1.52237,1.414729 1.52237,3.813617 z m -6.6892,1.92218 q 1.19944,0 2.27586,-0.59972 1.09181,-0.6151 1.81455,-1.691523 v -4.167299 h -2.33738 q -2.67568,0 -3.78286,0.922649 -1.0918,0.92265 -1.0918,2.475776 0,3.060117 3.12163,3.060117 z"
         style="font-size:29.9861px"
         id="path319" />
      <path
         d="m 329.30503,101.89056 q 1.21482,0 2.26049,-0.38444 1.06105,-0.39982 1.95294,-1.03029 l 1.26096,1.69152 q -1.06105,0.90727 -2.55267,1.43011 -1.49161,0.52283 -2.92172,0.52283 -2.41427,0 -4.12117,-1.03029 -1.69152,-1.04567 -2.58341,-2.92172 -0.8919,-1.891434 -0.8919,-4.428719 0,-2.429643 0.8919,-4.351829 0.89189,-1.922186 2.59879,-3.029366 1.7069,-1.122556 4.13654,-1.122556 3.09088,0 5.41288,1.876053 l -1.26095,1.722279 q -2.10672,-1.445484 -4.18268,-1.445484 -2.09134,0 -3.44456,1.583881 -1.35322,1.568504 -1.35322,4.767022 0,3.244649 1.35322,4.705509 1.35322,1.44549 3.44456,1.44549 z"
         style="font-size:29.9861px"
         id="path321" />
      <path
         d="m 342.46818,96.585322 q 0.10764,2.814081 1.47624,4.105788 1.38397,1.27633 3.26002,1.27633 1.24558,0 2.24512,-0.36906 0.99953,-0.36906 2.07596,-1.0918 l 1.21482,1.7069 q -1.12256,0.8919 -2.58342,1.39935 -1.46086,0.50746 -2.98323,0.50746 -2.36813,0 -4.0289,-1.06105 -1.64539,-1.06104 -2.52191,-2.95247 -0.86114,-1.906811 -0.86114,-4.413342 0,-2.460398 0.86114,-4.367206 0.87652,-1.906809 2.4604,-2.998611 1.59926,-1.091801 3.7521,-1.091801 3.06012,0 4.81316,2.122093 1.76841,2.122093 1.76841,5.812691 0,0.415192 -0.0308,0.784251 -0.0154,0.36906 -0.0308,0.630477 z m 4.39796,-7.227419 q -1.79917,0 -3.01399,1.276332 -1.21482,1.276331 -1.3686,3.952014 h 8.44225 q -0.0461,-2.598795 -1.13794,-3.905882 -1.0918,-1.322464 -2.92172,-1.322464 z"
         style="font-size:29.9861px"
         id="path323" />
      <path
         d="m 383.64912,81.05406 v 18.714402 q 0,1.199448 0.73812,1.706898 0.7535,0.49208 1.93757,0.49208 0.72274,0 1.38397,-0.15377 0.67661,-0.15378 1.33784,-0.41519 l 0.69199,1.89143 q -0.66123,0.32292 -1.64539,0.56896 -0.96878,0.26142 -2.19898,0.26142 -2.15285,0 -3.49069,-1.18407 -1.33784,-1.19944 -1.33784,-3.306155 V 83.099266 h -4.96693 V 81.05406 Z"
         style="font-size:29.9861px"
         id="path325" />
      <path
         d="m 401.93298,79.993013 q 0.86113,0 1.36859,0.522835 0.52284,0.522834 0.52284,1.276331 0,0.784252 -0.52284,1.322464 -0.50746,0.522835 -1.36859,0.522835 -0.81501,0 -1.33785,-0.522835 -0.52283,-0.538212 -0.52283,-1.322464 0,-0.753497 0.52283,-1.276331 0.52284,-0.522835 1.33785,-0.522835 z m 2.06058,7.581102 V 101.7214 h 4.56711 v 2.04521 h -12.14821 v -2.04521 h 4.99768 V 89.61932 h -4.84391 v -2.045205 z"
         style="font-size:29.9861px"
         id="path327" />
      <path
         d="m 417.00293,80.731133 v 23.035477 h -2.58342 V 81.05406 Z m 10.81037,6.842982 -7.28892,7.288929 8.13469,8.903566 h -3.39843 l -7.96554,-8.842056 7.16591,-7.350439 z"
         style="font-size:29.9861px"
         id="path329" />
      <path
         d="m 434.73319,96.585322 q 0.10764,2.814081 1.47624,4.105788 1.38397,1.27633 3.26003,1.27633 1.24557,0 2.24511,-0.36906 0.99954,-0.36906 2.07596,-1.0918 l 1.21482,1.7069 q -1.12255,0.8919 -2.58341,1.39935 -1.46087,0.50746 -2.98324,0.50746 -2.36813,0 -4.0289,-1.06105 -1.64539,-1.06104 -2.52191,-2.95247 -0.86114,-1.906811 -0.86114,-4.413342 0,-2.460398 0.86114,-4.367206 0.87652,-1.906809 2.4604,-2.998611 1.59926,-1.091801 3.75211,-1.091801 3.06012,0 4.81315,2.122093 1.76841,2.122093 1.76841,5.812691 0,0.415192 -0.0308,0.784251 -0.0154,0.36906 -0.0308,0.630477 z m 4.39796,-7.227419 q -1.79916,0 -3.01398,1.276332 -1.21483,1.276331 -1.3686,3.952014 h 8.44224 q -0.0461,-2.598795 -1.13793,-3.905882 -1.09181,-1.322464 -2.92173,-1.322464 z"
         style="font-size:29.9861px"
         id="path331" />
    </g>
    <g
       aria-label="~"
       id="text1808"
       style="font-size:211.667px;font-family:'Fira Code';-inkscape-font-specification:'Fira Code, Normal';text-align:center;text-anchor:middle;fill:#cc9221;stroke-width:0.264583">
      <path
         d="m 233.48454,171.7976 q 8.14103,0 13.78549,3.25642 5.753,3.25641 10.20343,7.5983 4.45044,4.23334 8.57523,7.5983 4.12479,3.25642 9.11796,3.25642 6.72993,0 11.94019,-5.31881 5.31882,-5.31881 9.55216,-13.13421 l 13.02566,6.72992 q -3.14787,6.18719 -7.70685,12.59148 -4.55898,6.29573 -11.28891,10.63762 -6.62138,4.23334 -16.17353,4.23334 -7.5983,0 -13.24276,-3.25641 -5.5359,-3.25642 -10.09488,-7.48976 -4.55899,-4.34189 -8.90087,-7.5983 -4.34189,-3.36497 -9.44361,-3.36497 -7.05556,0 -12.15728,5.31882 -5.10172,5.21026 -9.33506,13.02566 l -13.02566,-6.40429 q 3.25641,-6.40428 7.70685,-12.80856 4.55898,-6.40429 11.18036,-10.63763 6.62138,-4.23334 16.28208,-4.23334 z"
         id="path334" />
    </g>
  </g>
  <metadata
     id="metadata327">
    <rdf:RDF>
      <cc:Work
         rdf:about="">
        <cc:license
           rdf:resource="http://creativecommons.org/licenses/by/4.0/" />
      </cc:Work>
      <cc:License
         rdf:about="http://creativecommons.org/licenses/by/4.0/">
        <cc:permits
           rdf:resource="http://creativecommons.org/ns#Reproduction" />
        <cc:permits
           rdf:resource="http://creativecommons.org/ns#Distribution" />
        <cc:requires
           rdf:resource="http://creativecommons.org/ns#Notice" />
        <cc:requires
           rdf:resource="http://creativecommons.org/ns#Attribution" />
        <cc:permits
           rdf:resource="http://creativecommons.org/ns#DerivativeWorks" />
      </cc:License>
    </rdf:RDF>
  </metadata>
</svg>
